<mxfile host="app.diagrams.net" modified="2022-10-07T13:32:52.371Z" agent="5.0 (Windows)" etag="AHTL8D7j63L2RvoS7mW4" version="20.4.0" type="github">
  <diagram id="S-alI5P5jRZVqD6Lum6Q" name="Page-1">
    <mxGraphModel dx="1038" dy="495" grid="1" gridSize="10" guides="1" tooltips="1" connect="1" arrows="1" fold="1" page="1" pageScale="1" pageWidth="827" pageHeight="1169" math="0" shadow="0">
      <root>
        <mxCell id="0" />
        <mxCell id="1" parent="0" />
        <mxCell id="GgDHPttUwfQujWBgTErz-19" value="User" style="shape=umlActor;verticalLabelPosition=bottom;verticalAlign=top;html=1;outlineConnect=0;" parent="1" vertex="1">
          <mxGeometry x="60" y="59" width="30" height="60" as="geometry" />
        </mxCell>
        <mxCell id="GgDHPttUwfQujWBgTErz-26" value="S&#39;authentifier en tant qu&#39;admin" style="ellipse;whiteSpace=wrap;html=1;" parent="1" vertex="1">
          <mxGeometry x="270" y="220" width="120" height="80" as="geometry" />
        </mxCell>
        <mxCell id="GgDHPttUwfQujWBgTErz-35" value="" style="endArrow=none;html=1;rounded=0;exitX=1;exitY=1;exitDx=0;exitDy=0;exitPerimeter=0;entryX=0;entryY=0.5;entryDx=0;entryDy=0;" parent="1" source="GgDHPttUwfQujWBgTErz-19" target="GgDHPttUwfQujWBgTErz-26" edge="1">
          <mxGeometry width="50" height="50" relative="1" as="geometry">
            <mxPoint x="90" y="280" as="sourcePoint" />
            <mxPoint x="170" y="260" as="targetPoint" />
          </mxGeometry>
        </mxCell>
        <mxCell id="GgDHPttUwfQujWBgTErz-36" value="Acheter Un Code" style="ellipse;whiteSpace=wrap;html=1;" parent="1" vertex="1">
          <mxGeometry x="270" y="20" width="120" height="80" as="geometry" />
        </mxCell>
        <mxCell id="GgDHPttUwfQujWBgTErz-37" value="" style="endArrow=none;html=1;rounded=0;entryX=0;entryY=0.5;entryDx=0;entryDy=0;exitX=1;exitY=0.3333333333333333;exitDx=0;exitDy=0;exitPerimeter=0;" parent="1" source="GgDHPttUwfQujWBgTErz-19" target="GgDHPttUwfQujWBgTErz-36" edge="1">
          <mxGeometry width="50" height="50" relative="1" as="geometry">
            <mxPoint x="90" y="130" as="sourcePoint" />
            <mxPoint x="140" y="80" as="targetPoint" />
          </mxGeometry>
        </mxCell>
        <mxCell id="GgDHPttUwfQujWBgTErz-41" value="Vérifier &lt;br&gt;&lt;div&gt;la Validité &lt;br&gt;&lt;/div&gt;&lt;div&gt;D&#39;un Code&lt;/div&gt;&lt;div&gt;&lt;br&gt;&lt;/div&gt;" style="ellipse;whiteSpace=wrap;html=1;" parent="1" vertex="1">
          <mxGeometry x="280" y="119" width="120" height="80" as="geometry" />
        </mxCell>
        <mxCell id="GgDHPttUwfQujWBgTErz-42" value="" style="endArrow=none;html=1;rounded=0;exitX=1;exitY=0.3333333333333333;exitDx=0;exitDy=0;exitPerimeter=0;entryX=0;entryY=0.5;entryDx=0;entryDy=0;" parent="1" source="GgDHPttUwfQujWBgTErz-19" target="GgDHPttUwfQujWBgTErz-41" edge="1">
          <mxGeometry width="50" height="50" relative="1" as="geometry">
            <mxPoint x="100" y="170" as="sourcePoint" />
            <mxPoint x="150" y="120" as="targetPoint" />
          </mxGeometry>
        </mxCell>
        <mxCell id="JA6PF8SNbRtc8Y-RjLcM-4" value="Admin" style="shape=umlActor;verticalLabelPosition=bottom;verticalAlign=top;html=1;outlineConnect=0;" vertex="1" parent="1">
          <mxGeometry x="15" y="440" width="30" height="60" as="geometry" />
        </mxCell>
        <mxCell id="JA6PF8SNbRtc8Y-RjLcM-5" value="Définir les offres" style="ellipse;whiteSpace=wrap;html=1;" vertex="1" parent="1">
          <mxGeometry x="270" y="430" width="120" height="80" as="geometry" />
        </mxCell>
        <mxCell id="JA6PF8SNbRtc8Y-RjLcM-6" value="" style="endArrow=none;html=1;rounded=0;entryX=0;entryY=0.5;entryDx=0;entryDy=0;endFill=0;" edge="1" source="JA6PF8SNbRtc8Y-RjLcM-4" target="JA6PF8SNbRtc8Y-RjLcM-5" parent="1">
          <mxGeometry width="50" height="50" relative="1" as="geometry">
            <mxPoint x="80" y="340" as="sourcePoint" />
            <mxPoint x="130" y="290" as="targetPoint" />
            <Array as="points" />
          </mxGeometry>
        </mxCell>
        <mxCell id="JA6PF8SNbRtc8Y-RjLcM-11" value="Choisir la formule" style="ellipse;whiteSpace=wrap;html=1;" vertex="1" parent="1">
          <mxGeometry x="520" y="20" width="120" height="80" as="geometry" />
        </mxCell>
        <mxCell id="JA6PF8SNbRtc8Y-RjLcM-12" value="Payer" style="ellipse;whiteSpace=wrap;html=1;" vertex="1" parent="1">
          <mxGeometry x="520" y="119" width="120" height="80" as="geometry" />
        </mxCell>
        <mxCell id="JA6PF8SNbRtc8Y-RjLcM-14" value="" style="endArrow=classicThin;html=1;rounded=0;exitX=1;exitY=0.5;exitDx=0;exitDy=0;entryX=0;entryY=0.388;entryDx=0;entryDy=0;entryPerimeter=0;dashed=1;endFill=1;" edge="1" parent="1" source="GgDHPttUwfQujWBgTErz-36" target="JA6PF8SNbRtc8Y-RjLcM-12">
          <mxGeometry width="50" height="50" relative="1" as="geometry">
            <mxPoint x="390" y="280" as="sourcePoint" />
            <mxPoint x="440" y="230" as="targetPoint" />
          </mxGeometry>
        </mxCell>
        <mxCell id="JA6PF8SNbRtc8Y-RjLcM-15" value="" style="endArrow=classicThin;html=1;rounded=0;exitX=0.992;exitY=0.4;exitDx=0;exitDy=0;exitPerimeter=0;dashed=1;startArrow=none;startFill=0;endFill=1;" edge="1" parent="1" source="GgDHPttUwfQujWBgTErz-36" target="JA6PF8SNbRtc8Y-RjLcM-11">
          <mxGeometry width="50" height="50" relative="1" as="geometry">
            <mxPoint x="390" y="280" as="sourcePoint" />
            <mxPoint x="440" y="230" as="targetPoint" />
          </mxGeometry>
        </mxCell>
        <mxCell id="JA6PF8SNbRtc8Y-RjLcM-16" value="include" style="text;html=1;strokeColor=none;fillColor=none;align=center;verticalAlign=middle;whiteSpace=wrap;rounded=0;" vertex="1" parent="1">
          <mxGeometry x="420" y="29" width="60" height="30" as="geometry" />
        </mxCell>
        <mxCell id="JA6PF8SNbRtc8Y-RjLcM-17" value="include" style="text;html=1;strokeColor=none;fillColor=none;align=center;verticalAlign=middle;whiteSpace=wrap;rounded=0;rotation=30;" vertex="1" parent="1">
          <mxGeometry x="450" y="89" width="60" height="30" as="geometry" />
        </mxCell>
      </root>
    </mxGraphModel>
  </diagram>
</mxfile>
